<?xml version="1.0" encoding="utf-8"?>
<!-- Generator: Adobe Illustrator 15.1.0, SVG Export Plug-In . SVG Version: 6.00 Build 0)  -->
<!DOCTYPE svg PUBLIC "-//W3C//DTD SVG 1.1//EN" "http://www.w3.org/Graphics/SVG/1.1/DTD/svg11.dtd">
<svg version="1.1" id="Layer_1" xmlns="http://www.w3.org/2000/svg" xmlns:xlink="http://www.w3.org/1999/xlink" x="0px" y="0px"
	 width="250px" height="250px" viewBox="0 0 250 250" enable-background="new 0 0 250 250" xml:space="preserve">
<g>
	<g>
		<path fill="#4D4D4D" d="M125,0C55.965,0,0,55.964,0,125c0,69.035,55.965,125,125,125s125-55.965,125-125
			C250,55.964,194.035,0,125,0z M125,235c-60.752,0-110-49.25-110-110C15,64.248,64.248,15,125,15c60.751,0,110,49.248,110,110
			C235,185.75,185.751,235,125,235z"/>
		<g>
			<path fill="#4D4D4D" d="M46.937,75h29.702l6.014,54l23.688-54h105.276C194.325,45.112,162.01,25,125,25
				C69.771,25,25,69.775,25,125c0,10.318,1.564,20.271,4.467,29.639L46.937,75z"/>
			<path fill="#4D4D4D" d="M192.518,96.201L180.954,175h-25.739l11.096-78.799h-29.699C132.268,125.555,124.987,175,125.248,175
				c0.371,0-25.99,0-25.99,0l6.325-50l-21.177,50H62.129l0.758-50L50.99,175H38.382c17.291,29.889,49.604,50,86.618,50
				c55.225,0,100-44.775,100-100c0-10.012-1.479-19.678-4.218-28.799H192.518L192.518,96.201z"/>
		</g>
	</g>
</g>
<image display="none" overflow="visible" width="600" height="165" xlink:href="3DE59D6A.jpg"  transform="matrix(1 0 0 1 -175.5 42.5)">
</image>
</svg>
